# xmcd
#
# Track frame offsets:
#	150
#	20200
#	37577
#	50368
#	68221
#	82589
#	101367
#	118239
#	134166
#	156056
#	173932
#	186155
#
# Disc length: 2759 seconds
#
# Revision: 0
# Processed by: cddbd v1.5.2PL0 Copyright (c) Steve Scherf et al.
# Submitted via: EasyCDDAExtractor 2010.4.0.0
#
DISCID=9a0ac50c
DTITLE=Robo Kazík - Ja keď spievam, slzy tečú
DYEAR=2003
DGENRE=Pop-Folk
TTITLE0=Sedia vrabce na konári
TTITLE1=Klára
TTITLE2=Na priedomí
TTITLE3=Tá, ó verte bude moja
TTITLE4=Chýbaš mi
TTITLE5=Spievam Ti láska
TTITLE6=Cesta do Ria
TTITLE7=Alena
TTITLE8=Rybárska nálada
TTITLE9=Svet je úbohý
TTITLE10=My spievame po domácky
TTITLE11=Ja sa lúčim
EXTD=
EXTT0=
EXTT1=
EXTT2=
EXTT3=
EXTT4=
EXTT5=
EXTT6=
EXTT7=
EXTT8=
EXTT9=
EXTT10=
EXTT11=
PLAYORDER=
